<svg width="170" height="170" viewBox="0 0 170 170" fill="none" xmlns="http://www.w3.org/2000/svg">
<g filter="url(#filter0_d_1_79)">
<rect x="60" y="30" width="50" height="50" rx="25" fill="#6EA4FC" shape-rendering="crispEdges"/>
<path d="M74.7021 50.6166L74.5532 50.3984H74.2891H73.9375H73.4375V50.8984C73.4375 51.3957 73.5482 51.8981 73.7567 52.4021L73.7567 52.4021L73.7592 52.4079C73.9563 52.8678 74.1732 53.2784 74.4119 53.6364C74.412 53.6365 74.412 53.6366 74.4121 53.6367L80.3611 62.5836C80.44 62.7094 80.5264 62.8351 80.6152 62.9239L80.6502 62.9589L80.6914 62.9863C80.8674 63.1037 81.073 63.1172 81.2031 63.1172C81.4904 63.1172 81.7586 63.0096 81.9559 62.7807C82.0793 62.6395 82.1936 62.4899 82.2988 62.332L82.3828 62.2061V62.0547C82.3828 61.9064 82.3967 61.667 82.4276 61.3265L82.4278 61.3246C82.4594 60.9616 82.4908 60.5523 82.5223 60.0969C82.5534 59.6453 82.5845 59.1782 82.6157 58.6957C82.6622 58.1986 82.7012 57.7315 82.7325 57.2944C82.7792 56.8578 82.8183 56.4589 82.8497 56.098C82.8807 55.7415 82.9104 55.4951 82.9372 55.3473L82.9416 55.3234L82.9436 55.2993C82.9576 55.131 82.9863 54.9054 83.0314 54.6192C83.094 54.3057 83.149 54.0069 83.1963 53.7228C83.2373 53.4767 83.2777 53.2651 83.3173 53.0868L89.6201 62.0468C89.6697 62.1285 89.7216 62.2062 89.7751 62.2717C89.8037 62.3067 89.8398 62.3467 89.883 62.3842C89.9221 62.4181 89.9927 62.4725 90.0919 62.5056L90.1101 62.5117L90.1287 62.5163C90.2573 62.5485 90.4225 62.5547 90.5781 62.5547C90.7114 62.5547 90.8444 62.5452 90.977 62.5262C91.1564 62.5006 91.3139 62.4111 91.428 62.2717C91.5294 62.1477 91.5793 62.006 91.6052 61.8828L93.7828 52.9149L93.7828 52.9149L93.785 52.9053C93.8618 52.5595 94.0252 52.198 94.2908 51.8203C94.5994 51.3883 94.9078 50.972 95.2159 50.5715C95.5498 50.1421 95.8459 49.7341 96.1035 49.3477L96.1036 49.3477L96.1086 49.3398C96.3835 48.9103 96.5625 48.4711 96.5625 48.0391C96.5625 47.8082 96.5306 47.5642 96.4199 47.3533C96.3258 47.1432 96.1496 47.0238 95.9885 46.9624C95.8258 46.9005 95.6459 46.8828 95.4766 46.8828C95.2961 46.8828 95.1061 46.9587 94.9688 47.0197L94.9584 47.0243L94.9483 47.0293C94.8729 47.067 94.7989 47.1086 94.7328 47.1548C94.6731 47.1966 94.5875 47.2643 94.5215 47.3633C94.4113 47.5285 94.2599 47.7999 94.0723 48.1593C93.8834 48.5215 93.6867 48.9069 93.4825 49.3155L93.4824 49.3154L93.4789 49.3227C93.2926 49.711 93.1062 50.0914 92.92 50.4639L92.9199 50.4639L92.9161 50.4718C92.7441 50.8314 92.6206 51.1023 92.5514 51.2752L92.5438 51.2943L92.5377 51.3139C92.4762 51.5138 92.3755 51.8316 92.2349 52.2689C92.0939 52.7076 91.9373 53.2009 91.7652 53.7485L91.765 53.7485L91.7614 53.7611C91.6048 54.3093 91.4404 54.8964 91.2683 55.5223C91.0975 56.1278 90.9268 56.7097 90.7562 57.268L90.7561 57.2679L90.7536 57.2767L90.7527 57.2799L90.7518 57.2831L90.7509 57.2863L90.75 57.2895L90.749 57.2927L90.7481 57.2959L90.7472 57.2991L90.7463 57.3023L90.7454 57.3055L90.7445 57.3087L90.7436 57.3119L90.7427 57.3151L90.7417 57.3183L90.7408 57.3214L90.7399 57.3246L90.739 57.3278L90.7381 57.331L90.7372 57.3342L90.7363 57.3374L90.7354 57.3405L90.7345 57.3437L90.7336 57.3469L90.7327 57.3501L90.7317 57.3532L90.7308 57.3564L90.7299 57.3596L90.729 57.3628L90.7281 57.3659L90.7272 57.3691L90.7263 57.3723L90.7254 57.3754L90.7245 57.3786L90.7236 57.3818L90.7227 57.3849L90.7218 57.3881L90.7209 57.3912L90.72 57.3944L90.7191 57.3976L90.7182 57.4007L90.7173 57.4039L90.7164 57.407L90.7155 57.4102L90.7146 57.4133L90.7137 57.4165L90.7128 57.4196L90.7119 57.4228L90.711 57.4259L90.7101 57.4291L90.7092 57.4322L90.7083 57.4354L90.7074 57.4385L90.7065 57.4416L90.7056 57.4448L90.7047 57.4479L90.7038 57.451L90.7029 57.4542L90.702 57.4573L90.7011 57.4604L90.7002 57.4636L90.6993 57.4667L90.6984 57.4698L90.6975 57.473L90.6966 57.4761L90.6958 57.4792L90.6949 57.4823L90.694 57.4855L90.6931 57.4886L90.6922 57.4917L90.6913 57.4948L90.6904 57.4979L90.6895 57.5011L90.6886 57.5042L90.6877 57.5073L90.6868 57.5104L90.686 57.5135L90.6851 57.5166L90.6842 57.5197L90.6833 57.5228L90.6824 57.5259L90.6815 57.529L90.6806 57.5321L90.6797 57.5352L90.6789 57.5384L90.678 57.5415L90.6771 57.5445L90.6762 57.5476L90.6753 57.5507L90.6744 57.5538L90.6735 57.5569L90.6727 57.56L90.6718 57.5631L90.6709 57.5662L90.67 57.5693L90.6691 57.5724L90.6683 57.5755L90.6674 57.5786L90.6665 57.5816L90.6656 57.5847L90.6647 57.5878L90.6638 57.5909L90.663 57.594L90.6621 57.597L90.6612 57.6001L90.6603 57.6032L90.6595 57.6063L90.6586 57.6093L90.6577 57.6124L90.6568 57.6155L90.6559 57.6185L90.6551 57.6216L90.6542 57.6247L90.6533 57.6277L90.6524 57.6308L90.6516 57.6339L90.6507 57.6369L90.6498 57.64L90.6489 57.643L90.6481 57.6461L90.6472 57.6492L90.6463 57.6522L90.6455 57.6553L90.6446 57.6583L90.6437 57.6614L90.6428 57.6644L90.642 57.6675L90.6411 57.6705L90.6402 57.6736L90.6394 57.6766L90.6385 57.6796L90.6376 57.6827L90.6367 57.6857L90.6359 57.6888L90.635 57.6918L90.6341 57.6948L90.6333 57.6979L90.6324 57.7009L90.6315 57.704L90.6307 57.707L90.6298 57.71L90.6289 57.713L90.6281 57.7161L90.6272 57.7191L90.6263 57.7221L90.6255 57.7252L90.6246 57.7282L90.6238 57.7312L90.6229 57.7342L90.622 57.7372L90.6212 57.7403L90.6203 57.7433L90.6194 57.7463L90.6186 57.7493L90.6177 57.7523L90.6169 57.7553L90.616 57.7583L90.6151 57.7613L90.6143 57.7644L90.6134 57.7674L90.6126 57.7704L90.6117 57.7734L90.6108 57.7764L90.61 57.7794L90.6091 57.7824L90.6083 57.7854L90.6074 57.7884L90.6066 57.7914L90.6057 57.7944L90.6049 57.7974L90.604 57.8004L90.6031 57.8034L90.6023 57.8063L90.6014 57.8093L90.6006 57.8123L90.5997 57.8153L90.5989 57.8183L90.598 57.8213L90.5972 57.8243L90.5963 57.8272L90.5955 57.8302L90.5946 57.8332L90.5938 57.8362L90.5929 57.8392L90.5921 57.8421L90.5912 57.8451L90.5904 57.8481L90.5895 57.8511L90.5887 57.854L90.5878 57.857L90.587 57.86L90.5861 57.8629L90.5853 57.8659L90.5844 57.8689L90.5836 57.8718L90.5827 57.8748L90.5819 57.8778L90.581 57.8807L90.5802 57.8837L90.5793 57.8866L90.5785 57.8896L90.5777 57.8925L90.5768 57.8955L90.576 57.8984L90.5751 57.9014L90.5743 57.9043L90.5734 57.9073L90.5726 57.9102L90.5718 57.9132L90.5709 57.9161L90.5701 57.9191L90.5692 57.922L90.5684 57.925L90.5676 57.9279L90.5667 57.9308L90.5659 57.9338L90.565 57.9367L90.5642 57.9396L90.5634 57.9426L90.5625 57.9455L90.5617 57.9484L90.5609 57.9514L90.56 57.9543L90.5592 57.9572L90.5583 57.9601L90.5575 57.9631L90.5567 57.966L90.5558 57.9689L90.555 57.9718L90.5542 57.9748L90.5533 57.9777L90.5525 57.9806L90.5517 57.9835L90.5508 57.9864L90.55 57.9893L90.5492 57.9922L90.5483 57.9952L90.5475 57.9981L90.5467 58.001L90.5458 58.0039L90.545 58.0068L90.5442 58.0097L90.5434 58.0126L90.5425 58.0155L90.5417 58.0184L90.5409 58.0213L90.54 58.0242L90.5392 58.0271L90.5384 58.03L90.5376 58.0329L90.5367 58.0358L90.5359 58.0387L90.5351 58.0416L90.5343 58.0445L90.5334 58.0473L90.5326 58.0502L90.5318 58.0531L90.531 58.056L90.5301 58.0589L90.5293 58.0618L90.5285 58.0646L90.5277 58.0675L90.5268 58.0704L90.526 58.0733L90.5252 58.0762L90.5244 58.079L90.5236 58.0819L90.5227 58.0848L90.5219 58.0876L90.5211 58.0905L90.5203 58.0934L90.5195 58.0963L90.5186 58.0991L90.5178 58.102L90.517 58.1048L90.5162 58.1077L90.5154 58.1106L90.5145 58.1134L90.5137 58.1163L90.5129 58.1191L90.5121 58.122L90.5113 58.1249L90.5105 58.1277L90.5097 58.1306L90.5088 58.1334L90.508 58.1363L90.5072 58.1391L90.5064 58.142L90.5056 58.1448L90.5048 58.1476L90.504 58.1505L90.5031 58.1533L90.5023 58.1562L90.5015 58.159L90.5007 58.1618L90.4999 58.1647L90.4991 58.1675L90.4983 58.1704L90.4975 58.1732L90.4967 58.176L90.4959 58.1789L90.495 58.1817L90.4942 58.1845L90.4934 58.1873L90.4926 58.1902L90.4918 58.193L90.491 58.1958L90.4902 58.1986L90.4894 58.2015L90.4886 58.2043L90.4878 58.2071L90.487 58.2099L90.4862 58.2127L90.4854 58.2155L90.4846 58.2183L90.4838 58.2212L90.483 58.224L90.4822 58.2268L90.4814 58.2296L90.4806 58.2324L90.4798 58.2352L90.479 58.238L90.4782 58.2408L90.4774 58.2436L90.4766 58.2464L90.4758 58.2492L90.475 58.252L90.4742 58.2548L90.4734 58.2576L90.4726 58.2604L90.4718 58.2632L90.471 58.266L90.4702 58.2688L90.4694 58.2716L90.4686 58.2743L90.4678 58.2771L90.467 58.2799L90.4662 58.2827L90.4654 58.2855L90.4646 58.2883L90.4638 58.2911L90.463 58.2938L90.4622 58.2966L90.4614 58.2994L90.4606 58.3022L90.4598 58.3049L90.459 58.3077L90.4582 58.3105L90.4575 58.3133L90.4567 58.316L90.4559 58.3188L90.4551 58.3216L90.4543 58.3243L90.4535 58.3271L90.4527 58.3298L90.4519 58.3326L90.4511 58.3354L90.4503 58.3381L90.4496 58.3409L90.4488 58.3436L90.448 58.3464L90.4472 58.3492L90.4464 58.3519L90.4456 58.3547L90.4448 58.3574L90.4441 58.3602L90.4433 58.3629L90.4425 58.3657L90.4417 58.3684L90.4409 58.3711L90.4401 58.3739L90.4393 58.3766L90.4386 58.3794L90.4378 58.3821L90.437 58.3848L90.4362 58.3876L90.4354 58.3903L90.4347 58.3931L90.4339 58.3958L90.4331 58.3985L90.4323 58.4013L90.4315 58.404L90.4308 58.4067L90.43 58.4094L90.4292 58.4122L90.4284 58.4149L90.4276 58.4176L90.4269 58.4203L90.4261 58.4231L90.4253 58.4258L90.4245 58.4285L90.4238 58.4312L90.423 58.4339L90.4222 58.4366L90.4214 58.4393L90.4207 58.4421L90.4199 58.4448L90.4191 58.4475L90.4183 58.4502L90.4176 58.4529L90.4168 58.4556L90.416 58.4583L90.4152 58.461L90.4145 58.4637L90.4137 58.4664L90.4129 58.4691L90.4122 58.4718L90.4114 58.4745L90.4106 58.4772L90.4098 58.4799L90.4091 58.4826L90.4083 58.4853L90.4075 58.488L90.4068 58.4907L90.406 58.4933L90.4052 58.496L90.4045 58.4987L90.4037 58.5014L90.4029 58.5041L90.4022 58.5068L90.4014 58.5094L90.4006 58.5121L90.3999 58.5148L90.3991 58.5175L90.3983 58.5202L90.3976 58.5228L90.3968 58.5255L90.396 58.5282L90.3953 58.5308L90.3945 58.5335L90.3938 58.5362L90.393 58.5389L90.3922 58.5415L90.3915 58.5442L90.3907 58.5468L90.39 58.5495L90.3892 58.5522L90.3884 58.5548L90.3877 58.5575L90.3869 58.5601L90.3862 58.5628L90.3854 58.5654L90.3846 58.5681L90.3839 58.5708L90.3831 58.5734L90.3824 58.5761L90.3816 58.5787L90.3809 58.5813L90.3801 58.584L90.3793 58.5866L90.3786 58.5893L90.3778 58.5919L90.3771 58.5946L90.3763 58.5972L90.3756 58.5998L90.3748 58.6025L90.3741 58.6051L90.3733 58.6077L90.3726 58.6104L90.3718 58.613L90.3711 58.6156L90.3703 58.6183L90.3696 58.6209L90.3688 58.6235L90.3681 58.6262L90.3673 58.6288L90.3666 58.6314L90.3658 58.634L90.3651 58.6366L90.3643 58.6393L90.3636 58.6419L90.3628 58.6445L90.3621 58.6471L90.3613 58.6497L90.3606 58.6523L90.3598 58.6549L90.3591 58.6576L90.3583 58.6602L90.3576 58.6628L90.3568 58.6654L90.3561 58.668L90.3554 58.6706L90.3546 58.6732L90.3539 58.6758L90.3531 58.6784L90.3524 58.681L90.3516 58.6836L90.3509 58.6862L90.3502 58.6888L90.3494 58.6914L90.3487 58.694L90.3479 58.6966L90.3472 58.6992L90.3465 58.7017L90.3457 58.7043L90.345 58.7069L90.3442 58.7095L90.3435 58.7121L90.3428 58.7147L90.342 58.7173L90.3413 58.7198L90.3406 58.7224L90.3398 58.725L90.3391 58.7276L90.3383 58.7301L90.3376 58.7327L90.3369 58.7353L90.3361 58.7379L90.3354 58.7404L90.3347 58.743L90.3339 58.7456L90.3332 58.7481L90.3325 58.7507L90.3317 58.7533L90.3294 58.7613L90.3274 58.7694C90.2516 59.0725 90.1901 59.3261 90.1432 59.5289C89.6124 58.9059 89.0961 58.2526 88.5944 57.5687C88.0987 56.8561 87.6107 56.1357 87.1304 55.4075C86.664 54.6768 86.2053 53.9539 85.7544 53.2387C85.3156 52.5023 84.8837 51.8189 84.4586 51.1888C84.3933 51.0836 84.3451 50.9917 84.3111 50.9124C84.2538 50.7787 84.1833 50.6527 84.0965 50.5395C83.9833 50.3675 83.8203 50.2516 83.6347 50.1897C83.4692 50.1346 83.2841 50.1172 83.1016 50.1172C82.9559 50.1172 82.8045 50.1263 82.6479 50.1437C82.4841 50.1619 82.3157 50.2272 82.1796 50.3632C82.0482 50.4947 81.9841 50.6551 81.955 50.8004L81.9534 50.8083L81.9521 50.8162L81.9519 50.8173L81.9517 50.8184L81.9516 50.8195L81.9514 50.8207L81.9512 50.8218L81.951 50.8229L81.9508 50.824L81.9506 50.8251L81.9504 50.8263L81.9503 50.8274L81.9501 50.8285L81.9499 50.8297L81.9497 50.8308L81.9495 50.8319L81.9493 50.8331L81.9491 50.8342L81.9489 50.8354L81.9487 50.8365L81.9485 50.8377L81.9483 50.8389L81.9482 50.84L81.948 50.8412L81.9478 50.8424L81.9476 50.8435L81.9474 50.8447L81.9472 50.8459L81.947 50.8471L81.9468 50.8483L81.9466 50.8495L81.9464 50.8506L81.9462 50.8518L81.946 50.853L81.9458 50.8542L81.9456 50.8555L81.9454 50.8567L81.9452 50.8579L81.945 50.8591L81.9448 50.8603L81.9446 50.8615L81.9444 50.8628L81.9442 50.864L81.944 50.8652L81.9437 50.8665L81.9435 50.8677L81.9433 50.8689L81.9431 50.8702L81.9429 50.8714L81.9427 50.8727L81.9425 50.8739L81.9423 50.8752L81.9421 50.8765L81.9419 50.8777L81.9417 50.879L81.9414 50.8803L81.9412 50.8815L81.941 50.8828L81.9408 50.8841L81.9406 50.8854L81.9404 50.8867L81.9402 50.8879L81.9399 50.8892L81.9397 50.8905L81.9395 50.8918L81.9393 50.8931L81.9391 50.8944L81.9389 50.8958L81.9386 50.8971L81.9384 50.8984L81.9382 50.8997L81.938 50.901L81.9378 50.9024L81.9375 50.9037L81.9373 50.905L81.9371 50.9063L81.9369 50.9077L81.9367 50.909L81.9364 50.9104L81.9362 50.9117L81.936 50.9131L81.9358 50.9144L81.9355 50.9158L81.9353 50.9171L81.9351 50.9185L81.9348 50.9199L81.9346 50.9212L81.9344 50.9226L81.9342 50.924L81.9339 50.9254L81.9337 50.9268L81.9335 50.9282L81.9332 50.9295L81.933 50.9309L81.9328 50.9323L81.9325 50.9337L81.9323 50.9351L81.9321 50.9365L81.9318 50.9379L81.9316 50.9394L81.9314 50.9408L81.9311 50.9422L81.9309 50.9436L81.9306 50.945L81.9304 50.9465L81.9302 50.9479L81.9299 50.9493L81.9297 50.9508L81.9295 50.9522L81.9292 50.9537L81.929 50.9551L81.9287 50.9566L81.9285 50.958L81.9282 50.9595L81.928 50.9609L81.9278 50.9624L81.9275 50.9639L81.9273 50.9653L81.927 50.9668L81.9268 50.9683L81.9265 50.9698L81.9263 50.9712L81.926 50.9727L81.9258 50.9742L81.9255 50.9757L81.9253 50.9772L81.925 50.9787L81.9248 50.9802L81.9245 50.9817L81.9243 50.9832L81.924 50.9847L81.9238 50.9863L81.9235 50.9878L81.9233 50.9893L81.923 50.9908L81.9228 50.9924L81.9225 50.9939L81.9223 50.9954L81.922 50.997L81.9217 50.9985L81.9215 51L81.9212 51.0016L81.921 51.0031L81.9207 51.0047L81.9204 51.0063L81.9202 51.0078L81.9199 51.0094L81.9197 51.0109L81.9194 51.0125L81.9191 51.0141L81.9189 51.0157L81.9186 51.0172L81.9184 51.0188L81.9181 51.0204L81.9178 51.022L81.9176 51.0236L81.9173 51.0252L81.917 51.0268L81.9168 51.0284L81.9165 51.03L81.9162 51.0316L81.916 51.0332L81.9157 51.0348L81.9154 51.0365L81.9151 51.0381L81.9149 51.0397L81.9146 51.0413L81.9143 51.043L81.9141 51.0446L81.9138 51.0462L81.9135 51.0479L81.9132 51.0495L81.913 51.0512L81.9127 51.0528L81.9124 51.0545L81.9121 51.0561L81.9119 51.0578L81.9116 51.0594L81.9113 51.0611L81.911 51.0628L81.9107 51.0645L81.9105 51.0661L81.9102 51.0678L81.9099 51.0695L81.9096 51.0712L81.9093 51.0729L81.9091 51.0746L81.9088 51.0763L81.9085 51.078L81.9082 51.0797L81.9079 51.0814L81.9076 51.0831L81.9074 51.0848L81.9071 51.0865L81.9068 51.0882L81.9065 51.0899L81.9062 51.0917L81.9059 51.0934L81.9056 51.0951L81.9053 51.0969L81.9051 51.0986L81.9048 51.1003L81.9045 51.1021L81.9042 51.1038L81.9039 51.1056L81.9036 51.1073L81.9033 51.1091L81.903 51.1108L81.9027 51.1126L81.9024 51.1144L81.9021 51.1161L81.9018 51.1179L81.9015 51.1197L81.9012 51.1215L81.9009 51.1233L81.9006 51.125L81.9003 51.1268L81.9001 51.1286L81.8998 51.1304L81.8995 51.1322L81.8992 51.134L81.8989 51.1358L81.8985 51.1376L81.8982 51.1394L81.8979 51.1413L81.8976 51.1431L81.8973 51.1449L81.897 51.1467L81.8967 51.1486L81.8964 51.1504L81.8961 51.1522L81.8958 51.1541L81.8955 51.1559L81.8952 51.1577L81.8949 51.1596L81.8946 51.1614L81.8943 51.1633L81.894 51.1651L81.8937 51.167L81.8933 51.1689L81.893 51.1707L81.8927 51.1726L81.8924 51.1745L81.8921 51.1764L81.8918 51.1782L81.8915 51.1801L81.8912 51.182L81.8908 51.1839L81.8905 51.1858L81.8902 51.1877L81.8899 51.1896L81.8896 51.1915L81.8893 51.1934L81.8889 51.1953L81.8886 51.1972L81.8883 51.1991L81.888 51.201L81.8877 51.203L81.8873 51.2049L81.887 51.2068L81.8867 51.2087L81.8864 51.2107L81.8861 51.2126L81.8857 51.2146L81.8854 51.2165L81.8851 51.2184L81.8848 51.2204L81.8844 51.2223L81.8841 51.2243L81.8838 51.2263L81.8835 51.2282L81.8831 51.2302L81.8828 51.2322L81.8825 51.2341L81.8821 51.2361L81.8818 51.2381L81.8815 51.2401L81.8811 51.2421L81.8808 51.244L81.8805 51.246L81.8802 51.248L81.8798 51.25L81.8795 51.252L81.8791 51.254L81.8788 51.256L81.8785 51.2581L81.8781 51.2601L81.8778 51.2621L81.8775 51.2641L81.8771 51.2661L81.8768 51.2682L81.8765 51.2702L81.8761 51.2722L81.8758 51.2743L81.8754 51.2763L81.8751 51.2783L81.8748 51.2804L81.8744 51.2824L81.8741 51.2845L81.8737 51.2865L81.8734 51.2886L81.873 51.2907L81.8727 51.2927L81.8724 51.2948L81.872 51.2969L81.8717 51.2989L81.8713 51.301L81.871 51.3031L81.8706 51.3052L81.8703 51.3073L81.8699 51.3094L81.8696 51.3115L81.8692 51.3136L81.8689 51.3157L81.8685 51.3178L81.8682 51.3199L81.8678 51.322L81.8675 51.3241L81.8671 51.3262L81.8668 51.3283L81.8664 51.3305L81.8661 51.3326L81.8657 51.3347L81.8653 51.3369L81.865 51.339L81.8646 51.3411L81.8643 51.3433L81.8639 51.3454L81.8636 51.3476L81.8632 51.3497L81.8628 51.3519L81.8625 51.354L81.8621 51.3562L81.8618 51.3584L81.8614 51.3605L81.861 51.3627L81.8607 51.3649L81.8603 51.3671L81.8599 51.3692L81.8596 51.3714L81.8592 51.3736L81.8589 51.3758L81.8585 51.378L81.8581 51.3802L81.8578 51.3824L81.8574 51.3846L81.857 51.3868L81.8567 51.389L81.8563 51.3912L81.8559 51.3935L81.8555 51.3957L81.8552 51.3979L81.8548 51.4001L81.8544 51.4024L81.8541 51.4046L81.8537 51.4068L81.8533 51.4091L81.8529 51.4113L81.8526 51.4136L81.8522 51.4158L81.8518 51.4181L81.8514 51.4203L81.8511 51.4226L81.8507 51.4248L81.8503 51.4271L81.8499 51.4294L81.8495 51.4316L81.8492 51.4339L81.8488 51.4362L81.8484 51.4385L81.848 51.4408L81.8476 51.443L81.8473 51.4453L81.8469 51.4476L81.8465 51.4499L81.8461 51.4522L81.8457 51.4545L81.8453 51.4568L81.845 51.4592L81.8446 51.4615L81.8442 51.4638L81.8438 51.4661L81.8434 51.4684L81.843 51.4708L81.8426 51.4731L81.8423 51.4754L81.8419 51.4778L81.8415 51.4801L81.8411 51.4824L81.8407 51.4848L81.8403 51.4871L81.8399 51.4895L81.8395 51.4918L81.8391 51.4942L81.8387 51.4966L81.8383 51.4989L81.8379 51.5013L81.8375 51.5037L81.8371 51.506L81.8368 51.5084L81.8364 51.5108L81.836 51.5132L81.8356 51.5156L81.8352 51.518L81.8348 51.5204L81.8344 51.5228L81.834 51.5252L81.8336 51.5276L81.8332 51.53L81.8328 51.5324L81.8324 51.5348L81.832 51.5372L81.8316 51.5396L81.8311 51.542L81.8307 51.5445L81.8303 51.5469L81.8299 51.5493L81.8295 51.5518L81.8291 51.5542L81.8287 51.5567L81.8283 51.5591L81.8279 51.5615L81.8275 51.564L81.8271 51.5665L81.8267 51.5689L81.8263 51.5714L81.8258 51.5738L81.8254 51.5763L81.825 51.5788L81.8246 51.5813L81.8242 51.5837L81.8238 51.5862L81.8234 51.5887L81.823 51.5912L81.8225 51.5937L81.8221 51.5962L81.8217 51.5987L81.8213 51.6012L81.8209 51.6037L81.8205 51.6062L81.82 51.6087L81.8196 51.6112L81.8192 51.6137L81.8188 51.6162L81.8184 51.6188L81.8179 51.6213L81.8175 51.6238L81.8171 51.6263L81.8167 51.6289L81.8163 51.6314L81.8158 51.634L81.8154 51.6365L81.815 51.6391L81.8146 51.6416L81.8141 51.6442L81.8137 51.6467L81.8133 51.6493L81.8128 51.6519L81.8124 51.6544L81.812 51.657L81.8116 51.6596L81.8111 51.6621L81.8107 51.6647L81.8103 51.6673L81.8098 51.6699L81.8094 51.6725L81.809 51.6751L81.8085 51.6777L81.8081 51.6803L81.8077 51.6829L81.8072 51.6855L81.8068 51.6881L81.8064 51.6907L81.8059 51.6933L81.8055 51.6959L81.8051 51.6986L81.8046 51.7012L81.8042 51.7038L81.8037 51.7065L81.8033 51.7091L81.8029 51.7117L81.8024 51.7144L81.802 51.717L81.8015 51.7197L81.8011 51.7223L81.8007 51.725L81.8002 51.7276L81.7998 51.7303L81.7993 51.733L81.7989 51.7356L81.7984 51.7383L81.798 51.741L81.7975 51.7436L81.7971 51.7463L81.7967 51.749L81.7962 51.7517L81.7958 51.7544L81.7953 51.7571L81.7949 51.7598L81.7944 51.7625L81.794 51.7652L81.7935 51.7679L81.7931 51.7706L81.7926 51.7733L81.7922 51.776L81.7917 51.7787L81.7912 51.7815L81.7908 51.7842L81.7903 51.7869L81.7899 51.7897L81.7894 51.7924L81.789 51.7951L81.7885 51.7979L81.7881 51.8006C81.7104 52.2667 81.6249 52.7565 81.5315 53.2699C81.4374 53.7877 81.351 54.2823 81.2724 54.7537C81.1946 55.2206 81.1446 55.5585 81.1271 55.7516L81.125 55.7742V55.7969V56.0427C81.0787 56.3689 81.0253 56.7743 80.9648 57.2583L80.9646 57.2583L80.9633 57.2722C80.917 57.7503 80.863 58.2205 80.8014 58.6828C80.7655 58.9432 80.7322 59.1855 80.7014 59.4098L74.7021 50.6166Z" fill="white" stroke="white"/>
</g>
<defs>
<filter id="filter0_d_1_79" x="0" y="0" width="170" height="170" filterUnits="userSpaceOnUse" color-interpolation-filters="sRGB">
<feFlood flood-opacity="0" result="BackgroundImageFix"/>
<feColorMatrix in="SourceAlpha" type="matrix" values="0 0 0 0 0 0 0 0 0 0 0 0 0 0 0 0 0 0 127 0" result="hardAlpha"/>
<feOffset dy="30"/>
<feGaussianBlur stdDeviation="30"/>
<feComposite in2="hardAlpha" operator="out"/>
<feColorMatrix type="matrix" values="0 0 0 0 0.231373 0 0 0 0 0.509804 0 0 0 0 0.964706 0 0 0 0.25 0"/>
<feBlend mode="normal" in2="BackgroundImageFix" result="effect1_dropShadow_1_79"/>
<feBlend mode="normal" in="SourceGraphic" in2="effect1_dropShadow_1_79" result="shape"/>
</filter>
</defs>
</svg>
