<svg width="68" height="14" viewBox="0 0 68 14" fill="none" xmlns="http://www.w3.org/2000/svg">
<path d="M3.78 13.5L0.45 0.899999H2.916L5.184 10.926L7.848 0.899999H10.386L12.978 10.926L15.246 0.899999H17.73L14.31 13.5H11.574L9.072 4.158L6.498 13.5H3.78ZM22.5707 13.716C21.4547 13.716 20.5907 13.368 19.9787 12.672C19.3787 11.976 19.0787 10.956 19.0787 9.612V4.572H21.3647V9.396C21.3647 10.164 21.5207 10.752 21.8327 11.16C22.1447 11.568 22.6367 11.772 23.3087 11.772C23.9447 11.772 24.4667 11.544 24.8747 11.088C25.2947 10.632 25.5047 9.996 25.5047 9.18V4.572H27.8087V13.5H25.7747L25.5947 11.988C25.3187 12.516 24.9167 12.936 24.3887 13.248C23.8727 13.56 23.2667 13.716 22.5707 13.716ZM30.1739 13.5V4.572H32.2079L32.4059 5.778C32.6939 5.346 33.0719 5.004 33.5399 4.752C34.0199 4.488 34.5719 4.356 35.1959 4.356C36.5759 4.356 37.5539 4.89 38.1299 5.958C38.4539 5.466 38.8859 5.076 39.4259 4.788C39.9779 4.5 40.5779 4.356 41.2259 4.356C42.3899 4.356 43.2839 4.704 43.9079 5.4C44.5319 6.096 44.8439 7.116 44.8439 8.46V13.5H42.5399V8.676C42.5399 7.908 42.3899 7.32 42.0899 6.912C41.8019 6.504 41.3519 6.3 40.7399 6.3C40.1159 6.3 39.6119 6.528 39.2279 6.984C38.8559 7.44 38.6699 8.076 38.6699 8.892V13.5H36.3659V8.676C36.3659 7.908 36.2159 7.32 35.9159 6.912C35.6159 6.504 35.1539 6.3 34.5299 6.3C33.9179 6.3 33.4199 6.528 33.0359 6.984C32.6639 7.44 32.4779 8.076 32.4779 8.892V13.5H30.1739ZM52.3233 13.716C51.6513 13.716 51.0633 13.59 50.5593 13.338C50.0553 13.086 49.6473 12.732 49.3353 12.276L49.0833 13.5H47.0313V0.539999H49.3353V5.85C49.6233 5.454 50.0013 5.106 50.4693 4.806C50.9493 4.506 51.5673 4.356 52.3233 4.356C53.1633 4.356 53.9133 4.56 54.5733 4.968C55.2333 5.376 55.7553 5.934 56.1393 6.642C56.5233 7.35 56.7153 8.154 56.7153 9.054C56.7153 9.954 56.5233 10.758 56.1393 11.466C55.7553 12.162 55.2333 12.714 54.5733 13.122C53.9133 13.518 53.1633 13.716 52.3233 13.716ZM51.8373 11.7C52.5693 11.7 53.1753 11.454 53.6553 10.962C54.1353 10.47 54.3753 9.834 54.3753 9.054C54.3753 8.274 54.1353 7.632 53.6553 7.128C53.1753 6.624 52.5693 6.372 51.8373 6.372C51.0933 6.372 50.4813 6.624 50.0013 7.128C49.5333 7.62 49.2993 8.256 49.2993 9.036C49.2993 9.816 49.5333 10.458 50.0013 10.962C50.4813 11.454 51.0933 11.7 51.8373 11.7ZM63.0575 13.716C62.1935 13.716 61.4135 13.518 60.7175 13.122C60.0335 12.726 59.4875 12.18 59.0795 11.484C58.6835 10.776 58.4855 9.96 58.4855 9.036C58.4855 8.112 58.6895 7.302 59.0975 6.606C59.5055 5.898 60.0515 5.346 60.7355 4.95C61.4315 4.554 62.2115 4.356 63.0755 4.356C63.9275 4.356 64.6955 4.554 65.3795 4.95C66.0755 5.346 66.6215 5.898 67.0175 6.606C67.4255 7.302 67.6295 8.112 67.6295 9.036C67.6295 9.96 67.4255 10.776 67.0175 11.484C66.6215 12.18 66.0755 12.726 65.3795 13.122C64.6835 13.518 63.9095 13.716 63.0575 13.716ZM63.0575 11.718C63.6575 11.718 64.1795 11.496 64.6235 11.052C65.0675 10.596 65.2895 9.924 65.2895 9.036C65.2895 8.148 65.0675 7.482 64.6235 7.038C64.1795 6.582 63.6635 6.354 63.0755 6.354C62.4635 6.354 61.9355 6.582 61.4915 7.038C61.0595 7.482 60.8435 8.148 60.8435 9.036C60.8435 9.924 61.0595 10.596 61.4915 11.052C61.9355 11.496 62.4575 11.718 63.0575 11.718Z" fill="#193766"/>
</svg>
