<svg width="68" height="14" viewBox="0 0 68 14" fill="none" xmlns="http://www.w3.org/2000/svg">
<path d="M3.78 13L0.45 0.399999H2.916L5.184 10.426L7.848 0.399999H10.386L12.978 10.426L15.246 0.399999H17.73L14.31 13H11.574L9.072 3.658L6.498 13H3.78ZM22.5707 13.216C21.4547 13.216 20.5907 12.868 19.9787 12.172C19.3787 11.476 19.0787 10.456 19.0787 9.112V4.072H21.3647V8.896C21.3647 9.664 21.5207 10.252 21.8327 10.66C22.1447 11.068 22.6367 11.272 23.3087 11.272C23.9447 11.272 24.4667 11.044 24.8747 10.588C25.2947 10.132 25.5047 9.496 25.5047 8.68V4.072H27.8087V13H25.7747L25.5947 11.488C25.3187 12.016 24.9167 12.436 24.3887 12.748C23.8727 13.06 23.2667 13.216 22.5707 13.216ZM30.1739 13V4.072H32.2079L32.4059 5.278C32.6939 4.846 33.0719 4.504 33.5399 4.252C34.0199 3.988 34.5719 3.856 35.1959 3.856C36.5759 3.856 37.5539 4.39 38.1299 5.458C38.4539 4.966 38.8859 4.576 39.4259 4.288C39.9779 4 40.5779 3.856 41.2259 3.856C42.3899 3.856 43.2839 4.204 43.9079 4.9C44.5319 5.596 44.8439 6.616 44.8439 7.96V13H42.5399V8.176C42.5399 7.408 42.3899 6.82 42.0899 6.412C41.8019 6.004 41.3519 5.8 40.7399 5.8C40.1159 5.8 39.6119 6.028 39.2279 6.484C38.8559 6.94 38.6699 7.576 38.6699 8.392V13H36.3659V8.176C36.3659 7.408 36.2159 6.82 35.9159 6.412C35.6159 6.004 35.1539 5.8 34.5299 5.8C33.9179 5.8 33.4199 6.028 33.0359 6.484C32.6639 6.94 32.4779 7.576 32.4779 8.392V13H30.1739ZM52.3233 13.216C51.6513 13.216 51.0633 13.09 50.5593 12.838C50.0553 12.586 49.6473 12.232 49.3353 11.776L49.0833 13H47.0313V0.0399995H49.3353V5.35C49.6233 4.954 50.0013 4.606 50.4693 4.306C50.9493 4.006 51.5673 3.856 52.3233 3.856C53.1633 3.856 53.9133 4.06 54.5733 4.468C55.2333 4.876 55.7553 5.434 56.1393 6.142C56.5233 6.85 56.7153 7.654 56.7153 8.554C56.7153 9.454 56.5233 10.258 56.1393 10.966C55.7553 11.662 55.2333 12.214 54.5733 12.622C53.9133 13.018 53.1633 13.216 52.3233 13.216ZM51.8373 11.2C52.5693 11.2 53.1753 10.954 53.6553 10.462C54.1353 9.97 54.3753 9.334 54.3753 8.554C54.3753 7.774 54.1353 7.132 53.6553 6.628C53.1753 6.124 52.5693 5.872 51.8373 5.872C51.0933 5.872 50.4813 6.124 50.0013 6.628C49.5333 7.12 49.2993 7.756 49.2993 8.536C49.2993 9.316 49.5333 9.958 50.0013 10.462C50.4813 10.954 51.0933 11.2 51.8373 11.2ZM63.0575 13.216C62.1935 13.216 61.4135 13.018 60.7175 12.622C60.0335 12.226 59.4875 11.68 59.0795 10.984C58.6835 10.276 58.4855 9.46 58.4855 8.536C58.4855 7.612 58.6895 6.802 59.0975 6.106C59.5055 5.398 60.0515 4.846 60.7355 4.45C61.4315 4.054 62.2115 3.856 63.0755 3.856C63.9275 3.856 64.6955 4.054 65.3795 4.45C66.0755 4.846 66.6215 5.398 67.0175 6.106C67.4255 6.802 67.6295 7.612 67.6295 8.536C67.6295 9.46 67.4255 10.276 67.0175 10.984C66.6215 11.68 66.0755 12.226 65.3795 12.622C64.6835 13.018 63.9095 13.216 63.0575 13.216ZM63.0575 11.218C63.6575 11.218 64.1795 10.996 64.6235 10.552C65.0675 10.096 65.2895 9.424 65.2895 8.536C65.2895 7.648 65.0675 6.982 64.6235 6.538C64.1795 6.082 63.6635 5.854 63.0755 5.854C62.4635 5.854 61.9355 6.082 61.4915 6.538C61.0595 6.982 60.8435 7.648 60.8435 8.536C60.8435 9.424 61.0595 10.096 61.4915 10.552C61.9355 10.996 62.4575 11.218 63.0575 11.218Z" fill="white"/>
</svg>
